# xmcd
#
# Track frame offsets:
#	150
#	10359
#	21676
#	31115
#	42505
#	50675
#	62281
#	73647
#	85925
#	95886
#	109191
#	118367
#	129927
#	141333
#
# Disc length: 2028 seconds
#
# Revision: 2
# Processed by: cddbd v1.5.2PL0 Copyright (c) Steve Scherf et al.
# Submitted via: MusicManager 7.3.0.0 
#
DISCID=cd07ea0e
DTITLE=Beatles - Beatles For Sale (UK Mono Mix Dr. Ebbetts)
DYEAR=1964
DGENRE=Pop
TTITLE0=No Reply
TTITLE1=I'm A Loser
TTITLE2=Baby's In Black
TTITLE3=Rock And Roll Music
TTITLE4=I'll Follow The Sun
TTITLE5=Mr. Moonlight
TTITLE6=Kansas City/Hey Hey Hey Hey
TTITLE7=Eight Days A Week
TTITLE8=Words Of Love
TTITLE9=Honey Don't
TTITLE10=Every Little Thing
TTITLE11=I Don't Want To Spoil The Party
TTITLE12=What You're Doing
TTITLE13=Everybody's Trying To Be My Baby
EXTD=
EXTT0=
EXTT1=
EXTT2=
EXTT3=
EXTT4=
EXTT5=
EXTT6=
EXTT7=
EXTT8=
EXTT9=
EXTT10=
EXTT11=
EXTT12=
EXTT13=
PLAYORDER=
